<svg xmlns="http://www.w3.org/2000/svg" width="371" height="155" fill="none"><path fill="#fff" d="M120.366 11.5794C127.536 9.11765 128.129 0 121.019 0c-2.009 0-4.298 1.38791-5.905 4.22451L105.443 21.001c-.394.7175-.855 1.3959-1.375 2.0261-2.471-3.4343-1.748-8.5604 1.717-10.8095l-1.346-1.8134c-7.4914 4.8121-5.2921 18.7216 7.21 18.7216 10.645-.0101 15.586-12.9166 8.717-17.5464Zm-8.827 14.7605c-1.796.0456-3.572-.384-5.152-1.2461.669-.8002 1.267-1.6578 1.788-2.5631l6.025-10.5055 1.004.1013c8.315 1.7728 4.991 14.2134-3.665 14.2134Zm3.846-16.42193 2.882-4.99444c2.611-4.538563 5.945-1.87418 4.158 1.51961-1.376 2.60359-3.405 3.40392-7.04 3.47483Z"/><path fill="#fff" d="m260.305 19.2484-.241.2735c-1.723 2.2114-3.967 3.9527-6.528 5.0654.583-.9321 1.004-1.9451 1.476-2.7049l3.947-6.8282c3.334-5.71368-2.059-7.62838-5.704-4.3359l.723-1.24608h-3.575l-5.584 9.77618-.241.2735c-.674.7875-1.5 1.4295-2.426 1.8873-.927.4578-1.936.7221-2.966.7771l3.364-5.8556c2.169-3.7787.171-7.34475-3.194-7.34475-2.751 0-4.88 1.10425-6.939 4.71075l-1.757 3.0392-1.466 2.5125-.191.2228c-2.581 3.0393-5.081 5.4098-6.668 5.4098-.793 0-1.235-.5571-.412-2.0261l5.152-9.1176c1.546-2.7353.07-4.71083-1.928-4.71083-1.547 0-3.194.86111-5.021 2.73533l5.704-10.01932h-3.575l-9.912 17.50592-.201.233c-1.247 1.4895-2.681 2.8076-4.268 3.9206 1.135-3.4344.894-8.7023 3.093-13.3118l-2.681-1.45883c-1.476 2.02613-4.71 6.75723-7.934 10.56633l-.241.2735c-2.58 3.0393-5.081 5.4098-6.668 5.4098-.793 0-1.235-.5571-.411-2.0261l3.575-6.3114c1.235-2.1883.652-3.4647-.512-4.883l-2.009-2.42128c-.13-.13606-.231-.29688-.299-.47304-.067-.17615-.099-.3641-.093-.55282.006-.18871.048-.37439.126-.54616.078-.17177.189-.32616.326-.45413l.111-.09117-1.858-2.02615c-2.008 1.83366-2.199 3.88007-.924 5.54155l.301.4153c-1.576 2.249-3.705 5.2984-6.025 8.1046l-.241.2735c-2.581 3.0392-5.875 5.4098-8.385 5.4098-2.199 0-3.505-1.3879-1.858-4.2954l.341-.6281c2.3 1.0131 6.628.5167 9.31-4.1536l.512-.9016c1.928-3.3229.07-5.8252-2.852-5.8252-1.38.00984-2.73.40018-3.906 1.1287-1.175.7286-2.13 1.7676-2.762 3.0046l-3.485 6.0785-.211.2431c-.672.7902-1.497 1.434-2.424 1.8921-.928.4581-1.937.7208-2.969.7723l3.365-5.8556c.791-1.2428 1.254-2.6691 1.345-4.1434.025-.3985-.029-.7979-.157-1.1755-.129-.3776-.33-.7259-.592-1.0251-.262-.29917-.58-.54332-.936-.71851-.355-.17519-.742-.27798-1.137-.3025h-.421c-.842.02394-1.658.3028-2.34.80033l4.539-7.93235h-3.645L156.839 19.2484l-.19.2127c-2.581 3.0392-5.082 5.4098-6.668 5.4098-.794 0-1.236-.5572-.412-2.0261l3.575-6.3115c1.235-2.1882.653-3.4647-.512-4.883l-2.009-2.42122c-.13-.13603-.232-.29719-.299-.47384-.068-.17665-.099-.36517-.092-.55429.006-.18913.051-.37498.13-.54645.079-.17147.192-.32505.332-.45156l.14-.11144-1.858-2.02614c-2.008 1.83366-2.199 3.88007-.923 5.54154l.311.4153c-1.577 2.249-3.716 5.2984-6.025 8.1046l-.242.2735c-2.58 3.0392-5.081 5.4098-6.668 5.4098-.793 0-1.235-.5572-.411-2.0261l5.774-10.1915h-2.008c-.067-.9575-.497-1.8523-1.2-2.4992-.702-.6469-1.625-.99623-2.576-.97565-1.928 0-4.6 1.52975-6.116 4.16375l-5.021 8.7327c-1.517 2.6745-.442 5.1261 2.44 5.1261 1.446 0 3.234-.932 4.951-2.3605.171 1.3879 1.275 2.3605 3.093 2.3605 2.952 0 6.357-3.1912 9.309-6.6559 1.717-2.0261 3.013-3.8091 5.905-7.7297l.482.5876c.239.2741.387.6163.425.9792.038.3629-.037.7287-.214 1.0469l-3.776 6.6154c-1.506 2.6745-.442 5.1261 2.44 5.1261 2.069 0 4.359-1.5703 6.568-3.6977 0 2.4618 1.817 3.8497 4.127 3.8497 1.189-.0634 2.349-.397 3.392-.9759 1.044-.5789 1.944-1.3881 2.634-2.3673.264.0203.529.0203.793 0 1.67-.0801 3.296-.5667 4.74-1.4183-.191 2.6036 1.687 4.5791 4.84 4.5791 4.017 0 8.034-3.1912 11.047-6.6559 1.717-2.0261 3.012-3.8091 5.904-7.7297l.482.5876c.239.2741.388.6163.425.9792.038.3629-.037.7287-.214 1.0469l-3.776 6.6154c-1.516 2.6745-.441 5.1261 2.441 5.1261 2.882 0 6.356-3.1912 9.309-6.6559 2.008-2.3604 3.816-4.883 5.081-6.5849-1.406 3.7483-.653 10.465-4.017 10.465-.375-.0375-.733-.1809-1.031-.4139-.298-.2329-.526-.5459-.656-.9031l-2.179 1.1752c.229.8608.742 1.6174 1.454 2.1457.711.5283 1.58.7969 2.463.7618.341 0 .672 0 1.004-.0709h.1c1.994-.3422 3.878-1.1621 5.493-2.3909l-1.225 2.1477h3.605l5.423-9.533c5.503-6.9699 7.933-6.0784 6.387-3.3938l-4.64 8.1046c-1.516 2.6644-.441 5.1262 2.441 5.1262 2.078 0 4.368-1.5804 6.577-3.718 0 4.5993 6.317 5.4908 10.193.5572h.794c1.326-.0506 2.628-.3747 3.826-.9523l-6.508 11.3869h3.605l10.685-18.7519c4.017-5.4808 6.498-3.4648 5.564-1.8337l-5.393 9.4317c-.097.266-.273.4955-.504.6576-.231.1621-.505.249-.786.249-.282 0-.556-.0869-.787-.249-.23-.1621-.406-.3916-.504-.6576l-2.008 1.0131c.229.8608.742 1.6174 1.453 2.1457.712.5283 1.58.7969 2.463.7618h.211c5.192-.1013 8.586-3.2216 11.509-6.6559-.144-.2844-.345-.5351-.59-.7359-.246-.2007-.531-.3469-.836-.4291Zm-81.342-5.0654c2.008-3.566 5.703-2.9784 3.575.7598l-.513.9016c-1.717 2.9481-4.017 2.8772-5.362 2.3909l2.3-4.0523Zm-45.803 5.6833c-2.169 3.4344-4.298 5.0654-5.774 5.0654-.794 0-1.236-.5572-.412-2.0261l5.021-8.7732c1.928-3.3634 5.734-2.4922 4.017.7598l-2.852 4.9741Zm26.903 4.9236c-.345.0196-.684-.0975-.945-.3265-.261-.229-.423-.5517-.451-.8993-.005-.054-.005-.1082 0-.1621.054-.6665.268-1.3097.623-1.8742l1.205-2.2794c.093.75.344 1.4713.735 2.1159.391.6446.914 1.1977 1.534 1.6223-.268.5-.658.9237-1.131 1.2318-.474.3081-1.018.4907-1.58.5309l.01.0406Zm3.726-3.5154c-.495-.3801-.891-.8752-1.155-1.4433-.264-.568-.388-1.192-.362-1.8188 0-2.5631 2.471-6.7572 4.499-6.7572.18 0 .359.036.525.1059.167.0698.318.1722.445.3012.126.1291.227.2821.295.4505.068.1683.102.3486.101.5303.005.0573.005.115 0 .1723-.034.7644-.27 1.5057-.683 2.1477l-3.665 6.3114Zm73.388-1.8033h-.18c-.559.0054-1.093.2329-1.486.6332s-.613.941-.613 1.5044c.006.4284.124.8475.341 1.2157v.0709c-1.687 2.9075-5.774 2.3605-3.645-1.3879l4.398-7.7095c2.511-4.29539 5.945-2.6036 3.776 1.1448l-2.591 4.5284ZM0 74.2176l5.73411-5.7947 5.74419 5.7947-5.74419 5.8151L0 74.2176Zm353.486 0 5.744-5.7846 5.735 5.7948-5.714 5.8049-5.765-5.8151Z"/><path fill="#636466" d="M46.9977 74.4406h2.0888v-8.4288h3.2838v-2.1173h-5.3726v10.5461Zm14.9529 1.5398V63.1347c-.0053-.8607-.2487-1.7027-.703-2.4312-.4542-.7285-1.1011-1.3146-1.8678-1.692.3181.627.4834 1.3217.482 2.0261v12.8458c.0104.6768-.1294 1.3474-.4091 1.9627-.2798.6152-.6924 1.1596-1.2077 1.5932.5114.4791.9224 1.0567 1.2087 1.6988.2863.6421.4422 1.3355.4583 2.0394v14.2843c-.0159 1.2378-.5172 2.4188-1.3943 3.2846-.877.8658-2.0583 1.3456-3.2854 1.3346h-13.567v2.108h15.706c1.2097-.016 2.3654-.508 3.2208-1.371.8554-.8628 1.3429-2.0287 1.3585-3.249V83.2847c-.0195-.7062-.1798-1.4012-.4714-2.0434-.2915-.6423-.7084-1.2187-1.2258-1.6949.5342-.4241.9649-.966 1.2591-1.5842.2942-.6181.444-1.2961.4381-1.9818Z"/><path fill="#636466" d="M46.9976 92.5341h2.0887v-8.449h3.2839v-2.1579h-5.3726v10.6069Zm33.1393 0h2.0888V66.0119h3.2838v-2.1174h-5.3626l-.01 28.6396Z"/><path fill="#636466" d="M92.529 59.0113c.3182.6271.4835 1.3217.4821 2.0262v34.4444c-.0157 1.2203-.5031 2.3862-1.3585 3.2492-.8555.8629-2.0112 1.3549-3.2208 1.3709H77.3251c-.6977-.004-1.3852-.1704-2.0084-.4867.3741.7737.955 1.4257 1.6772 1.8847.7221.458 1.5568.703 2.4099.709h11.1268c1.2097-.016 2.3654-.508 3.2208-1.371.8554-.8627 1.3429-2.0286 1.3585-3.2489V63.1447c-.0031-.8637-.2467-1.7091-.7031-2.4399-.4563-.7308-1.1069-1.3176-1.8778-1.6935Zm20.767 15.4291h2.089v-8.4287h3.294v-2.1173h-5.383v10.546Zm12.302 9.1177c.778-.3626 1.437-.9429 1.898-1.672.461-.7291.705-1.5763.703-2.4411V63.1346c.001-.8672-.241-1.7169-.698-2.4517-.456-.7347-1.109-1.3246-1.883-1.7019.314.6287.479 1.3222.482 2.0261v16.3611c.007.8646-.232 1.713-.69 2.444-.458.7311-1.114 1.314-1.891 1.6792l3.093 18.5896h-5.704l.352 2.107h7.421l-3.083-18.6299Zm-9.46-1.6716h-2.842v18.1945h-5.332v2.118h7.421V84.0849h1.105l-.352-2.1984Zm29.314 10.6069h2.098V66.0117h3.284v-2.1173h-5.382v28.599Z"/><path fill="#636466" d="M157.844 59.0115c.319.6266.484 1.3215.482 2.0261v34.4445c-.016 1.2203-.503 2.3861-1.359 3.2491-.855.863-2.011 1.3548-3.221 1.3708H142.6c-.698-.004-1.386-.1703-2.009-.4866.374.7736.955 1.4256 1.677 1.8846.722.458 1.557.704 2.41.709h11.137c1.21-.016 2.365-.508 3.221-1.371.855-.8626 1.343-2.0284 1.358-3.2487V63.1448c0-.8605-.239-1.7036-.69-2.4341-.451-.7305-1.095-1.3191-1.86-1.6992Zm20.757 33.5225h2.099V66.0118h3.284v-2.1173h-5.383V92.534Z"/><path fill="#636466" d="M190.993 59.0114c.318.6271.483 1.3217.482 2.0262V95.482c-.016 1.2203-.503 2.3862-1.358 3.2491-.856.863-2.012 1.3549-3.221 1.3709h-13.617v2.107h15.706c1.209-.016 2.365-.508 3.22-1.371.856-.8626 1.343-2.0285 1.359-3.2488V63.1448c-.004-.8624-.246-1.7066-.7-2.4371-.455-.7305-1.103-1.3181-1.871-1.6963Zm21.139-.4863v41.5359H206.8v2.117h7.421V58.5251h-2.089Zm33.019 0v41.5359h-5.925l.592 2.117h7.432V58.5251h-2.099Zm-12.864 22.5206v19.0353h-5.333v2.118h7.421V88.3297l-2.088-7.284Zm32.406 3.0392h6.136v-2.1578h-8.225c-.698-.0035-1.385-.1699-2.008-.4863.365.7867.943 1.4528 1.669 1.9209.725.468 1.567.7188 2.428.7232Zm2.842 2.7657-2.099.4863v5.1971h2.099v-5.6834Zm10.293-27.8392c.318.6271.484 1.3217.482 2.0262v8.8643l-5.392 1.2563v2.5934l7.481-1.7526v-8.8644c-.005-.8606-.249-1.7027-.703-2.4312-.454-.7285-1.101-1.3145-1.868-1.692Z"/><path fill="#636466" d="M277.828 77.0441c.318.6271.484 1.3217.482 2.0261V95.482c-.015 1.2203-.503 2.3862-1.358 3.2491-.856.863-2.011 1.3549-3.221 1.3709h-11.137c-.698-.004-1.385-.1703-2.008-.4867.374.7737.955 1.4257 1.677 1.8847.722.458 1.557.704 2.41.709H275.8c1.209-.016 2.365-.508 3.22-1.371.856-.8626 1.343-2.0285 1.359-3.2488V81.1673c-.002-.8587-.242-1.6998-.693-2.4283-.451-.7285-1.094-1.3155-1.858-1.6949Zm-12.392-13.1699v10.5663h2.099v-8.4287h3.284v-2.1174l-5.383-.0202Zm33.822 18.0529h-.683v18.1539h-5.342v2.118h7.421V86.4657l-1.396-4.5386Zm15.204-23.402h-2.751l-6.257 19.6638 6.93 21.8921h-6.026l.583 1.864.06.254h7.481l-6.929-21.9029 6.929-21.771h-.02Zm17.454 0v41.5359h-5.323v2.117h7.411V58.5251h-2.088Z"/><path fill="#fff" d="M168.609 125.469h1.416c5.453.284 9.731 1.753 12.442 4.782 2.752-3.04 7.03-4.519 12.513-4.782h1.356c12.161.831 17.704 9.624 27.415 13.362 1.509.693 3.152 1.039 4.81 1.013 2.491-.273 4.077-2.816 3.756-5.652-.342-3.04-3.294-5.684-6.588-4.225-.432.205-.829.478-1.175.81-.251.233-.532.841-1.175.618-.602-.506 0-1.246.312-1.671.594-1.067 1.494-1.928 2.582-2.47 1.088-.542 2.312-.741 3.513-.569 5.654.405 10.715 5.409 9.852 12.987-1.928 11.276-12.151 14.315-24.272 15.328h-3.947c-10.578-.436-20.724-4.349-28.891-11.144-8.229 6.778-18.41 10.687-29.022 11.144h-3.877c-12.211-1.084-22.535-4.052-24.332-15.662-.683-8.267 4.198-12.329 9.861-12.744 1.212-.174 2.447.023 3.546.564 1.099.542 2.012 1.404 2.62 2.475.281.466.804 1.185.312 1.742-.613.112-.914-.375-1.175-.618-.367-.386-.807-.695-1.293-.908-.486-.214-1.009-.329-1.539-.338-3.877-.142-6.106 4.204-4.559 7.71.303.68.772 1.271 1.365 1.718.592.446 1.286.734 2.019.835 1.656.011 3.296-.334 4.81-1.013 1.35-.523 2.651-1.167 3.886-1.925 7.381-4.316 13.156-10.445 23.459-11.367Z"/><path fill="#636466" d="m363.167 83.9937 5.734-5.7947L371 80.3163l-5.744 5.7948-2.089-2.1174Zm-353.48634 0 5.73414-5.7846 2.0988 2.1072-5.704 5.7948-2.12894-2.1174Z"/><path fill="#fff" d="M55.8849 69.9019c.0039.6754-.143 1.3431-.4298 1.9534-.2869.6103-.7063 1.1476-1.2272 1.5721.5114.4791.9224 1.0567 1.2087 1.6988.2864.6421.4422 1.3355.4583 2.0394v14.2843c-.0156 1.2203-.503 2.3862-1.3584 3.2492-.8555.8629-2.0112 1.3547-3.2208 1.3704H35.5996V52.396h15.7061c1.2128.0053 2.3745.4937 3.2321 1.3589.8577.8652 1.3418 2.0371 1.3471 3.2607v12.8863Zm-7.4815-10.0193h-5.3826v10.5461h5.3826V59.8826Zm0 18.0327h-5.3826v10.6068h5.3826V77.9153ZM84.455 52.396c1.2129.0053 2.3746.4937 3.2322 1.3589.8577.8652 1.3418 2.0371 1.3471 3.2607V91.46c-.0156 1.2203-.5031 2.3862-1.3585 3.2492-.8554.8629-2.0111 1.3547-3.2208 1.3705H73.3082c-1.2113-.0106-2.3699-.5007-3.2265-1.3648-.8565-.864-1.3423-2.0329-1.3528-3.2549V57.0156c0-1.2252.4825-2.4002 1.3412-3.2666.8588-.8663 2.0236-1.353 3.2381-1.353H84.455Zm-2.9122 7.4866h-5.3726v28.6395h5.3826l-.01-28.6395Zm33.6512 36.1869-3.012-18.1542h-2.842v18.1542h-7.422V52.396h15.707c.597.004 1.188.1266 1.738.3609.551.2343 1.05.5757 1.469 1.0047.42.429.752.9371.977 1.4955.225.5583.338 1.1558.335 1.7585v16.351c-.002.8692-.252 1.7196-.72 2.4491-.469.7296-1.136 1.3073-1.922 1.664l3.093 18.5898h-7.401Zm-.492-36.1869h-5.382v10.5461h5.382V59.8826Zm35.068-7.4866c1.213.0053 2.374.4937 3.232 1.3589.858.8652 1.342 2.0371 1.347 3.2607V91.46c-.016 1.2203-.503 2.3862-1.359 3.2492-.855.8629-2.011 1.3547-3.22 1.3705h-11.127c-1.211-.0106-2.37-.5007-3.227-1.3648-.856-.864-1.342-2.0329-1.352-3.2549V57.0156c0-1.2147.474-2.3806 1.32-3.2452.845-.8647 1.995-1.3584 3.199-1.3744h11.187Zm-2.913 7.4866h-5.382v28.6395h5.382V59.8826Zm36.062-7.4866c1.213.0053 2.375.4937 3.232 1.3589.858.8652 1.342 2.0371 1.347 3.2607V91.46c-.015 1.2203-.503 2.3862-1.358 3.2492-.856.8629-2.011 1.3547-3.221 1.3705h-15.706V52.396h15.706Zm-2.902 7.4866h-5.383v28.6395h5.383V59.8826Zm20.717-7.4866h7.421v43.6735h-7.421V52.396Zm40.45 0v43.6735h-7.421l-5.443-19.0761v19.0761h-7.391V52.396h7.361l5.443 17.901V52.396h7.451Zm28.57 18.0327c1.213.0053 2.375.4937 3.232 1.3589.858.8652 1.342 2.0371 1.347 3.2607V91.46c-.015 1.2203-.503 2.3862-1.358 3.2492-.855.8629-2.011 1.3547-3.221 1.3705h-11.127c-1.207-.0159-2.361-.5083-3.213-1.3718-.852-.8635-1.335-2.0294-1.346-3.2479v-8.9859l7.421-1.7425v7.8007h5.383v-10.617h-8.225c-.6.0013-1.194-.1166-1.749-.347-.555-.2304-1.059-.5689-1.484-.9959-.426-.4271-.763-.9345-.994-1.4933-.231-.5587-.35-1.1578-.352-1.7632V57.0156c0-1.2217.48-2.3936 1.334-3.2594.855-.8658 2.014-1.3548 3.225-1.3602h11.147c1.213.0053 2.375.4937 3.232 1.3589.858.8652 1.342 2.0371 1.348 3.2607v8.834l-7.482 1.7526v-7.7196h-5.383v10.5461h8.265Zm31.734 3.7483 6.929 21.9027h-7.482l-.06-.2533-5.563-17.901h-.683v18.1441h-7.421V52.396h7.421v18.0327h.612l5.694-18.0327h7.542l-6.989 21.781Zm19.08-21.781h7.421v43.6735h-7.421V52.396Z"/></svg>